<svg width="24" height="24" viewBox="0 0 24 24" fill="none" xmlns="http://www.w3.org/2000/svg">
<path d="M5.82812 19.1016H18.4062C19.1094 19.1016 19.6536 18.8984 20.0391 18.4922C20.4297 18.0911 20.625 17.487 20.625 16.6797V8.05469C20.625 7.2526 20.4193 6.65104 20.0078 6.25C19.6016 5.84375 18.9896 5.64062 18.1719 5.64062H5.59375C4.89062 5.64062 4.34375 5.84375 3.95312 6.25C3.56771 6.65104 3.375 7.2526 3.375 8.05469V16.6797C3.375 17.487 3.57812 18.0911 3.98438 18.4922C4.39583 18.8984 5.01042 19.1016 5.82812 19.1016ZM5.78125 17.9062C5.39062 17.9062 5.09115 17.8047 4.88281 17.6016C4.67448 17.3932 4.57031 17.0859 4.57031 16.6797V8.05469C4.57031 7.65365 4.67448 7.35156 4.88281 7.14844C5.09115 6.9401 5.39062 6.83594 5.78125 6.83594H18.2188C18.6042 6.83594 18.901 6.9401 19.1094 7.14844C19.3229 7.35156 19.4297 7.65625 19.4297 8.0625V16.6875C19.4297 17.0885 19.3229 17.3932 19.1094 17.6016C18.901 17.8047 18.6042 17.9062 18.2188 17.9062H5.78125ZM12.0156 14.4531C12.2917 14.4531 12.5625 14.3932 12.8281 14.2734C13.0938 14.1536 13.3646 13.9583 13.6406 13.6875L19.9844 7.45312L19.1719 6.63281L12.9609 12.7656C12.7891 12.9323 12.625 13.0547 12.4688 13.1328C12.3177 13.2109 12.1667 13.25 12.0156 13.25C11.8594 13.25 11.7031 13.2109 11.5469 13.1328C11.3958 13.0495 11.237 12.9271 11.0703 12.7656L4.82812 6.60156L4.00781 7.42188L10.3906 13.6875C10.6615 13.9583 10.9297 14.1536 11.1953 14.2734C11.4661 14.3932 11.7396 14.4531 12.0156 14.4531ZM19.0938 18.0781L19.9062 17.2578L14.8516 12.2656L14.0391 13.0781L19.0938 18.0781ZM4.11719 17.2656L4.92969 18.0859L9.99219 13.0781L9.17188 12.2656L4.11719 17.2656Z" fill="#787E8E"/>
</svg>
