<svg width="24" height="24" viewBox="0 0 24 24" fill="none" xmlns="http://www.w3.org/2000/svg">
<path d="M12 15.2839C12.9903 15.2839 13.8312 14.9162 14.5226 14.1808C15.2147 13.446 15.5607 12.5524 15.5607 11.5C15.5607 10.4476 15.2147 9.55402 14.5226 8.81921C13.8312 8.08379 12.9903 7.71607 12 7.71607C11.0097 7.71607 10.1688 8.08379 9.47738 8.81921C8.78534 9.55402 8.43932 10.4476 8.43932 11.5C8.43932 12.5524 8.78534 13.446 9.47738 14.1808C10.1688 14.9162 11.0097 15.2839 12 15.2839ZM12 14.0071C11.3447 14.0071 10.7878 13.7632 10.3293 13.2754C9.87029 12.7882 9.64078 12.1964 9.64078 11.5C9.64078 10.8036 9.87029 10.2115 10.3293 9.72364C10.7878 9.23645 11.3447 8.99286 12 8.99286C12.6553 8.99286 13.2125 9.23645 13.6716 9.72364C14.13 10.2115 14.3592 10.8036 14.3592 11.5C14.3592 12.1964 14.13 12.7882 13.6716 13.2754C13.2125 13.7632 12.6553 14.0071 12 14.0071ZM12 18C10.0922 18 8.34087 17.4661 6.74592 16.3982C5.15155 15.3304 3.93204 13.8833 3.08738 12.0571C3.05825 11.9952 3.03641 11.9138 3.02184 11.8129C3.00728 11.7126 3 11.6083 3 11.5C3 11.3917 3.00728 11.287 3.02184 11.1861C3.03641 11.0859 3.05825 11.0048 3.08738 10.9429C3.93204 9.11667 5.15155 7.66964 6.74592 6.60179C8.34087 5.53393 10.0922 5 12 5C13.9078 5 15.6588 5.53393 17.2532 6.60179C18.8482 7.66964 20.068 9.11667 20.9126 10.9429C20.9417 11.0048 20.9636 11.0859 20.9782 11.1861C20.9927 11.287 21 11.3917 21 11.5C21 11.6083 20.9927 11.7126 20.9782 11.8129C20.9636 11.9138 20.9417 11.9952 20.9126 12.0571C20.068 13.8833 18.8482 15.3304 17.2532 16.3982C15.6588 17.4661 13.9078 18 12 18ZM12 16.6071C13.6456 16.6071 15.1567 16.1466 16.5332 15.2254C17.9091 14.3049 18.9612 13.0631 19.6893 11.5C18.9612 9.9369 17.9091 8.69479 16.5332 7.77364C15.1567 6.85312 13.6456 6.39286 12 6.39286C10.3544 6.39286 8.8433 6.85312 7.4668 7.77364C6.09087 8.69479 5.03884 9.9369 4.31068 11.5C5.03884 13.0631 6.09087 14.3049 7.4668 15.2254C8.8433 16.1466 10.3544 16.6071 12 16.6071Z" fill="#787E8E"/>
</svg>
