<svg width="16" height="16" viewBox="0 0 16 16" fill="none" xmlns="http://www.w3.org/2000/svg">
<path d="M7.99996 1.41553C6.79906 1.41553 5.69133 1.71575 4.67677 2.3162C3.66222 2.89595 2.85471 3.6931 2.25426 4.70766C1.67452 5.72221 1.38464 6.82994 1.38464 8.03085C1.38464 9.12822 1.62275 10.1531 2.09897 11.1056C2.5959 12.0373 3.26882 12.8138 4.11773 13.4349C4.96665 14.0561 5.91909 14.4391 6.97505 14.5841V9.95643H5.29793V8.03085H6.97505V6.57113C6.97505 5.76362 7.19246 5.13212 7.62727 4.6766C8.08278 4.22109 8.69359 3.99333 9.45968 3.99333C9.95661 3.99333 10.4535 4.03474 10.9505 4.11756V5.76362H10.1119C9.7392 5.76362 9.45968 5.86715 9.27333 6.0742C9.10769 6.26055 9.02487 6.49866 9.02487 6.78853V8.03085H10.8883L10.5778 9.95643H9.02487V14.5841C10.1015 14.4184 11.0643 14.025 11.9133 13.4039C12.7622 12.7827 13.4247 12.0063 13.901 11.0745C14.3772 10.1221 14.6153 9.10752 14.6153 8.03085C14.6153 6.82994 14.3151 5.72221 13.7146 4.70766C13.1349 3.6931 12.3377 2.89595 11.3232 2.3162C10.3086 1.71575 9.20087 1.41553 7.99996 1.41553Z" fill="#0d6efd"/>
</svg>
