<svg width="24" height="24" viewBox="0 0 24 24" fill="none" xmlns="http://www.w3.org/2000/svg">
<path d="M12 19.8906C12.5417 19.8906 13.0495 19.7031 13.5234 19.3281C14.0026 18.9531 14.4219 18.4271 14.7812 17.75C15.1458 17.0729 15.4297 16.2786 15.6328 15.3672C15.8411 14.4505 15.9453 13.4531 15.9453 12.375C15.9453 11.2969 15.8438 10.2995 15.6406 9.38281C15.4375 8.46094 15.1536 7.66146 14.7891 6.98438C14.4297 6.30208 14.0104 5.77344 13.5312 5.39844C13.0573 5.02344 12.5469 4.83594 12 4.83594C11.4531 4.83594 10.9401 5.02344 10.4609 5.39844C9.98698 5.77344 9.57031 6.30208 9.21094 6.98438C8.85156 7.66146 8.56771 8.46094 8.35938 9.38281C8.15625 10.2995 8.05469 11.2969 8.05469 12.375C8.05469 13.4531 8.15625 14.4505 8.35938 15.3672C8.56771 16.2786 8.85156 17.0729 9.21094 17.75C9.57552 18.4271 9.99479 18.9531 10.4688 19.3281C10.9479 19.7031 11.4583 19.8906 12 19.8906ZM12 5.78125C12.3802 5.78125 12.7448 5.95833 13.0938 6.3125C13.4427 6.66146 13.7526 7.14062 14.0234 7.75C14.2943 8.35938 14.5078 9.0625 14.6641 9.85938C14.8203 10.651 14.8984 11.4896 14.8984 12.375C14.8984 13.25 14.8203 14.0807 14.6641 14.8672C14.5078 15.6536 14.2943 16.3542 14.0234 16.9688C13.7526 17.5781 13.4427 18.0573 13.0938 18.4062C12.7448 18.7604 12.3802 18.9375 12 18.9375C11.6198 18.9375 11.2552 18.7604 10.9062 18.4062C10.5573 18.0573 10.2474 17.5781 9.97656 16.9688C9.70573 16.3542 9.49219 15.6536 9.33594 14.8672C9.17969 14.0807 9.10156 13.25 9.10156 12.375C9.10156 11.4896 9.17969 10.651 9.33594 9.85938C9.49219 9.0625 9.70573 8.35938 9.97656 7.75C10.2474 7.14062 10.5573 6.66146 10.9062 6.3125C11.2552 5.95833 11.6198 5.78125 12 5.78125ZM11.4922 4.94531V19.7422H12.5156V4.94531H11.4922ZM12 15.2969C11.1979 15.2969 10.4375 15.3646 9.71875 15.5C9 15.6302 8.35156 15.8203 7.77344 16.0703C7.20052 16.3151 6.73177 16.6042 6.36719 16.9375L7.15625 17.5859C7.5 17.3151 7.91146 17.0859 8.39062 16.8984C8.875 16.7057 9.41927 16.5625 10.0234 16.4688C10.6328 16.3698 11.2917 16.3203 12 16.3203C12.7083 16.3203 13.3646 16.3698 13.9688 16.4688C14.5781 16.5625 15.1224 16.7057 15.6016 16.8984C16.0859 17.0859 16.5 17.3151 16.8438 17.5859L17.6328 16.9375C17.2682 16.6042 16.7969 16.3151 16.2188 16.0703C15.6458 15.8203 15 15.6302 14.2812 15.5C13.5625 15.3646 12.8021 15.2969 12 15.2969ZM19.2109 11.8438H4.78906V12.8672H19.2109V11.8438ZM12 9.46094C12.8021 9.46094 13.5625 9.39583 14.2812 9.26562C15 9.13021 15.6458 8.9401 16.2188 8.69531C16.7969 8.44531 17.2682 8.15365 17.6328 7.82031L16.8438 7.17188C16.5 7.44271 16.0859 7.67448 15.6016 7.86719C15.1224 8.05469 14.5781 8.19792 13.9688 8.29688C13.3646 8.39062 12.7083 8.4375 12 8.4375C11.2917 8.4375 10.6328 8.39062 10.0234 8.29688C9.41927 8.19792 8.875 8.05469 8.39062 7.86719C7.91146 7.67448 7.5 7.44271 7.15625 7.17188L6.36719 7.82031C6.73177 8.15365 7.20052 8.44531 7.77344 8.69531C8.35156 8.9401 9 9.13021 9.71875 9.26562C10.4375 9.39583 11.1979 9.46094 12 9.46094ZM12 20.3281C13.0885 20.3281 14.112 20.1198 15.0703 19.7031C16.0339 19.2865 16.8828 18.7109 17.6172 17.9766C18.3516 17.2422 18.9271 16.3958 19.3438 15.4375C19.7604 14.474 19.9688 13.4479 19.9688 12.3594C19.9688 11.2708 19.7604 10.2474 19.3438 9.28906C18.9271 8.32552 18.3516 7.47656 17.6172 6.74219C16.8828 6.00781 16.0339 5.43229 15.0703 5.01562C14.1068 4.59896 13.0807 4.39062 11.9922 4.39062C10.9036 4.39062 9.8776 4.59896 8.91406 5.01562C7.95573 5.43229 7.10938 6.00781 6.375 6.74219C5.64583 7.47656 5.07292 8.32552 4.65625 9.28906C4.23958 10.2474 4.03125 11.2708 4.03125 12.3594C4.03125 13.4479 4.23958 14.474 4.65625 15.4375C5.07292 16.3958 5.64844 17.2422 6.38281 17.9766C7.11719 18.7109 7.96354 19.2865 8.92188 19.7031C9.88542 20.1198 10.9115 20.3281 12 20.3281ZM12 19.2656C11.0573 19.2656 10.1693 19.0833 9.33594 18.7188C8.5026 18.3594 7.76823 17.862 7.13281 17.2266C6.4974 16.5911 5.9974 15.8568 5.63281 15.0234C5.27344 14.1901 5.09375 13.3021 5.09375 12.3594C5.09375 11.4167 5.27344 10.5286 5.63281 9.69531C5.9974 8.86198 6.49479 8.1276 7.125 7.49219C7.76042 6.85677 8.49479 6.35938 9.32812 6C10.1615 5.63542 11.0495 5.45312 11.9922 5.45312C12.9349 5.45312 13.8229 5.63542 14.6562 6C15.4896 6.35938 16.224 6.85677 16.8594 7.49219C17.5 8.1276 18 8.86198 18.3594 9.69531C18.724 10.5286 18.9062 11.4167 18.9062 12.3594C18.9062 13.3021 18.724 14.1901 18.3594 15.0234C18 15.8568 17.5026 16.5911 16.8672 17.2266C16.2318 17.862 15.4974 18.3594 14.6641 18.7188C13.8307 19.0833 12.9427 19.2656 12 19.2656Z" fill="#787E8E"/>
</svg>
