<svg xmlns="http://www.w3.org/2000/svg" xmlns:xlink="http://www.w3.org/1999/xlink" version="1.1" width="256" height="256" viewBox="0 0 256 256" xml:space="preserve">

<defs>
</defs>
<g style="stroke: none; stroke-width: 0; stroke-dasharray: none; stroke-linecap: butt; stroke-linejoin: miter; stroke-miterlimit: 10; fill: none; fill-rule: nonzero; opacity: 1;" transform="translate(1.4065934065934016 1.4065934065934016) scale(2.81 2.81)" >
	<path d="M 81.754 48.242 h -8.922 c -1.104 0 -2 -0.896 -2 -2 s 0.896 -2 2 -2 h 8.922 c 1.104 0 2 0.896 2 2 S 82.858 48.242 81.754 48.242 z" style="stroke: none; stroke-width: 1; stroke-dasharray: none; stroke-linecap: butt; stroke-linejoin: miter; stroke-miterlimit: 10; fill: rgb(75,109,170); fill-rule: nonzero; opacity: 1;" transform=" matrix(1 0 0 1 0 0) " stroke-linecap="round" />
	<path d="M 82.394 60.06 h -9.562 c -1.104 0 -2 -0.896 -2 -2 s 0.896 -2 2 -2 h 9.562 c 1.104 0 2 0.896 2 2 S 83.498 60.06 82.394 60.06 z" style="stroke: none; stroke-width: 1; stroke-dasharray: none; stroke-linecap: butt; stroke-linejoin: miter; stroke-miterlimit: 10; fill: rgb(75,109,170); fill-rule: nonzero; opacity: 1;" transform=" matrix(1 0 0 1 0 0) " stroke-linecap="round" />
	<path d="M 78.188 71.878 h -5.356 c -1.104 0 -2 -0.896 -2 -2 s 0.896 -2 2 -2 h 5.356 c 1.104 0 2 0.896 2 2 S 79.293 71.878 78.188 71.878 z" style="stroke: none; stroke-width: 1; stroke-dasharray: none; stroke-linecap: butt; stroke-linejoin: miter; stroke-miterlimit: 10; fill: rgb(75,109,170); fill-rule: nonzero; opacity: 1;" transform=" matrix(1 0 0 1 0 0) " stroke-linecap="round" />
	<path d="M 27.7 84.037 H 5.201 C 2.333 84.037 0 81.858 0 79.18 V 37.014 c 0 -2.678 2.333 -4.857 5.201 -4.857 H 27.7 c 2.723 0 4.964 1.964 5.184 4.455 c 5.979 -3.014 12.482 -16.575 13.042 -28.325 l 0.072 -1.511 l 1.473 -0.342 c 4.254 -0.987 7.499 -0.432 9.916 1.703 c 4.004 3.536 5.291 11.078 4.108 24.321 l 20.257 -0.033 c 4.069 0 7.377 3.308 7.377 7.373 v 1.072 c 0 1.964 -0.772 3.751 -2.028 5.074 c 1.628 1.354 2.667 3.394 2.667 5.672 v 1.071 c 0 2.06 -0.849 3.925 -2.215 5.264 C 89.054 59.301 90 61.259 90 63.434 v 1.071 c 0 3.383 -2.29 6.241 -5.401 7.105 c 0.612 1.074 0.963 2.317 0.963 3.641 v 1.071 c 0 4.065 -3.308 7.373 -7.373 7.373 h -30.29 c -5.652 0.127 -11.312 -1.122 -15.178 -3.244 C 32.121 82.515 30.097 84.037 27.7 84.037 z M 5.201 36.157 C 4.493 36.157 4 36.608 4 37.014 V 79.18 c 0 0.405 0.493 0.857 1.201 0.857 H 27.7 c 0.708 0 1.201 -0.452 1.201 -0.857 v -7.74 l 3.48 3.829 c 2.44 2.684 9.078 4.578 15.467 4.428 l 30.34 -0.001 c 1.86 0 3.373 -1.513 3.373 -3.373 v -1.071 c 0 -1.86 -1.513 -3.373 -3.373 -3.373 v -4 h 4.438 c 1.86 0 3.373 -1.513 3.373 -3.373 v -1.071 c 0 -1.86 -1.513 -3.374 -3.373 -3.374 h -0.233 v -4 c 1.86 0 3.373 -1.513 3.373 -3.373 v -1.071 c 0 -1.86 -1.513 -3.373 -3.373 -3.373 h -0.64 v -4 c 1.86 0 3.374 -1.513 3.374 -3.373 v -1.072 c 0 -1.86 -1.514 -3.373 -3.374 -3.373 l -24.685 0.04 l 0.231 -2.211 c 1.325 -12.668 0.463 -20.446 -2.563 -23.118 c -0.762 -0.672 -2.08 -1.458 -4.929 -1.072 c -1.166 12.732 -9.112 30.589 -18.792 31.149 l -2.116 0.123 v -4.32 c 0 -0.406 -0.493 -0.857 -1.201 -0.857 H 5.201 z" style="stroke: none; stroke-width: 1; stroke-dasharray: none; stroke-linecap: butt; stroke-linejoin: miter; stroke-miterlimit: 10; fill: rgb(75,109,170); fill-rule: nonzero; opacity: 1;" transform=" matrix(1 0 0 1 0 0) " stroke-linecap="round" />
	<path d="M 30.901 62.121 c -1.104 0 -2 -0.896 -2 -2 V 39.215 c 0 -1.104 0.896 -2 2 -2 s 2 0.896 2 2 v 20.906 C 32.901 61.226 32.006 62.121 30.901 62.121 z" style="stroke: none; stroke-width: 1; stroke-dasharray: none; stroke-linecap: butt; stroke-linejoin: miter; stroke-miterlimit: 10; fill: rgb(75,109,170); fill-rule: nonzero; opacity: 1;" transform=" matrix(1 0 0 1 0 0) " stroke-linecap="round" />
	<path d="M 16.106 74.769 c -1.104 0 -2 -0.896 -2 -2 v -8.712 c 0 -1.104 0.896 -2 2 -2 s 2 0.896 2 2 v 8.712 C 18.106 73.873 17.211 74.769 16.106 74.769 z" style="stroke: none; stroke-width: 1; stroke-dasharray: none; stroke-linecap: butt; stroke-linejoin: miter; stroke-miterlimit: 10; fill: rgb(75,109,170); fill-rule: nonzero; opacity: 1;" transform=" matrix(1 0 0 1 0 0) " stroke-linecap="round" />
</g>
</svg>