<svg width="24" height="24" viewBox="0 0 24 24" fill="none" xmlns="http://www.w3.org/2000/svg">
<path d="M8.42188 19.8359H15.5781C16.1615 19.8359 16.599 19.6849 16.8906 19.3828C17.1823 19.0859 17.3281 18.6172 17.3281 17.9766V12.5938C17.3281 11.9635 17.1823 11.5 16.8906 11.2031C16.599 10.901 16.1615 10.75 15.5781 10.75H8.42188C7.83854 10.75 7.40104 10.901 7.10938 11.2031C6.81771 11.5 6.67188 11.9635 6.67188 12.5938V17.9766C6.67188 18.6172 6.81771 19.0859 7.10938 19.3828C7.40104 19.6849 7.83854 19.8359 8.42188 19.8359ZM8.46875 18.6641C8.28646 18.6641 8.15104 18.6172 8.0625 18.5234C7.97396 18.4349 7.92969 18.2812 7.92969 18.0625V12.5156C7.92969 12.2969 7.97396 12.1432 8.0625 12.0547C8.15104 11.9661 8.28646 11.9219 8.46875 11.9219H15.5391C15.7214 11.9219 15.8542 11.9661 15.9375 12.0547C16.026 12.1432 16.0703 12.2969 16.0703 12.5156V18.0625C16.0703 18.2812 16.026 18.4349 15.9375 18.5234C15.8542 18.6172 15.7214 18.6641 15.5391 18.6641H8.46875ZM8.02344 11.3672H9.28125V8.71875C9.28125 8.0625 9.40625 7.51302 9.65625 7.07031C9.90625 6.6224 10.237 6.28646 10.6484 6.0625C11.0651 5.83333 11.5156 5.71875 12 5.71875C12.4896 5.71875 12.9401 5.83333 13.3516 6.0625C13.763 6.28646 14.0938 6.6224 14.3438 7.07031C14.5938 7.51302 14.7188 8.0625 14.7188 8.71875V11.3672H15.9766V8.88281C15.9766 8.14844 15.8672 7.50781 15.6484 6.96094C15.4297 6.41406 15.1328 5.96094 14.7578 5.60156C14.3828 5.23698 13.9557 4.96615 13.4766 4.78906C13.0026 4.60677 12.5104 4.51562 12 4.51562C11.4896 4.51562 10.9974 4.60677 10.5234 4.78906C10.0495 4.96615 9.625 5.23698 9.25 5.60156C8.875 5.96094 8.57552 6.41406 8.35156 6.96094C8.13281 7.50781 8.02344 8.14844 8.02344 8.88281V11.3672Z" fill="#787E8E"/>
</svg>
