<svg width="24" height="24" viewBox="0 0 24 24" fill="none" xmlns="http://www.w3.org/2000/svg">
<path d="M7.08594 19.7266H16.9062C18.1823 19.7266 18.8203 19.3099 18.8203 18.4766C18.8203 17.9661 18.6641 17.4219 18.3516 16.8438C18.0391 16.2656 17.5859 15.7214 16.9922 15.2109C16.4036 14.6953 15.6875 14.276 14.8438 13.9531C14.0052 13.6302 13.0573 13.4688 12 13.4688C10.9375 13.4688 9.98438 13.6302 9.14062 13.9531C8.30208 14.276 7.58594 14.6953 6.99219 15.2109C6.40365 15.7214 5.95312 16.2656 5.64062 16.8438C5.32812 17.4219 5.17188 17.9661 5.17188 18.4766C5.17188 19.3099 5.8099 19.7266 7.08594 19.7266ZM6.71875 18.5469C6.61458 18.5469 6.53906 18.5312 6.49219 18.5C6.45052 18.4688 6.42969 18.4115 6.42969 18.3281C6.42969 18.0104 6.54948 17.6432 6.78906 17.2266C7.03385 16.8047 7.39323 16.3984 7.86719 16.0078C8.34115 15.6172 8.92448 15.2943 9.61719 15.0391C10.3099 14.7786 11.1042 14.6484 12 14.6484C12.8958 14.6484 13.6875 14.7786 14.375 15.0391C15.0677 15.2943 15.651 15.6172 16.125 16.0078C16.599 16.3984 16.9557 16.8047 17.1953 17.2266C17.4401 17.6432 17.5625 18.0104 17.5625 18.3281C17.5625 18.4115 17.5391 18.4688 17.4922 18.5C17.4505 18.5312 17.3802 18.5469 17.2812 18.5469H6.71875ZM12 12.5C12.6198 12.5 13.1849 12.3333 13.6953 12C14.2057 11.6667 14.612 11.224 14.9141 10.6719C15.2214 10.1146 15.375 9.5 15.375 8.82812C15.375 8.16146 15.224 7.5599 14.9219 7.02344C14.6198 6.48177 14.2135 6.05208 13.7031 5.73438C13.1927 5.41667 12.625 5.25781 12 5.25781C11.3802 5.25781 10.8151 5.41927 10.3047 5.74219C9.79427 6.0651 9.38542 6.4974 9.07812 7.03906C8.77604 7.58073 8.625 8.18229 8.625 8.84375C8.625 9.51042 8.77604 10.1224 9.07812 10.6797C9.38542 11.2318 9.79427 11.6745 10.3047 12.0078C10.8151 12.3359 11.3802 12.5 12 12.5ZM12 11.3203C11.6198 11.3203 11.2682 11.2109 10.9453 10.9922C10.6276 10.7682 10.3698 10.4688 10.1719 10.0938C9.97917 9.71875 9.88281 9.30208 9.88281 8.84375C9.88281 8.39062 9.97917 7.98438 10.1719 7.625C10.3646 7.26042 10.6198 6.97135 10.9375 6.75781C11.2604 6.54427 11.6146 6.4375 12 6.4375C12.3906 6.4375 12.7448 6.54167 13.0625 6.75C13.3854 6.95833 13.6406 7.24479 13.8281 7.60938C14.0208 7.96875 14.1172 8.375 14.1172 8.82812C14.1172 9.28646 14.0208 9.70573 13.8281 10.0859C13.6354 10.4609 13.3776 10.7604 13.0547 10.9844C12.737 11.2083 12.3854 11.3203 12 11.3203Z" fill="#787E8E"/>
</svg>
