<svg width="24" height="24" viewBox="0 0 24 24" fill="none" xmlns="http://www.w3.org/2000/svg">
<path d="M15.7188 20.0234C16.401 20.0234 16.9818 19.9245 17.4609 19.7266C17.9401 19.5339 18.3776 19.2135 18.7734 18.7656C18.8047 18.7344 18.8333 18.7005 18.8594 18.6641C18.8906 18.6328 18.9219 18.6016 18.9531 18.5703C19.1875 18.3099 19.3594 18.0521 19.4688 17.7969C19.5833 17.5365 19.6406 17.2839 19.6406 17.0391C19.6406 16.7578 19.5573 16.487 19.3906 16.2266C19.224 15.9609 18.9661 15.7083 18.6172 15.4688L16.3438 13.8906C15.9948 13.651 15.625 13.5286 15.2344 13.5234C14.849 13.5182 14.4922 13.6771 14.1641 14L13.5625 14.6016C13.474 14.6901 13.388 14.7396 13.3047 14.75C13.2266 14.7604 13.1432 14.737 13.0547 14.6797C12.9141 14.5911 12.7344 14.4583 12.5156 14.2812C12.3021 14.1042 12.0781 13.9115 11.8438 13.7031C11.6094 13.4896 11.3958 13.2865 11.2031 13.0938C11 12.8906 10.8021 12.6849 10.6094 12.4766C10.4219 12.2682 10.2474 12.0677 10.0859 11.875C9.92969 11.6771 9.79948 11.4948 9.69531 11.3281C9.64323 11.2396 9.6224 11.1562 9.63281 11.0781C9.64323 10.9948 9.69271 10.9089 9.78125 10.8203L10.375 10.2188C10.7031 9.89062 10.8646 9.53385 10.8594 9.14844C10.8542 8.75781 10.7318 8.38802 10.4922 8.03906L8.91406 5.76562C8.66927 5.41667 8.41667 5.16146 8.15625 5C7.89583 4.83333 7.625 4.7474 7.34375 4.74219C6.84896 4.73177 6.33854 4.96094 5.8125 5.42969C5.78125 5.46094 5.7474 5.49219 5.71094 5.52344C5.67969 5.54948 5.64844 5.57552 5.61719 5.60156C5.17448 5.9974 4.85417 6.4349 4.65625 6.91406C4.45833 7.39323 4.35938 7.97135 4.35938 8.64844C4.35938 9.39323 4.50781 10.1823 4.80469 11.0156C5.10677 11.849 5.54688 12.7005 6.125 13.5703C6.70833 14.4349 7.41927 15.2865 8.25781 16.125C9.09635 16.9583 9.94792 17.6641 10.8125 18.2422C11.6771 18.8255 12.5234 19.2682 13.3516 19.5703C14.1849 19.8724 14.974 20.0234 15.7188 20.0234ZM15.7266 18.8203C15.0651 18.8359 14.3542 18.6901 13.5938 18.3828C12.8333 18.0755 12.0729 17.6562 11.3125 17.125C10.5521 16.5885 9.83333 15.9844 9.15625 15.3125C8.47917 14.6354 7.86458 13.9089 7.3125 13.1328C6.76562 12.3516 6.33333 11.5755 6.01562 10.8047C5.69792 10.0286 5.54427 9.3099 5.55469 8.64844C5.5651 8.21615 5.64583 7.82031 5.79688 7.46094C5.94792 7.09635 6.17708 6.78125 6.48438 6.51562C6.51042 6.48958 6.53385 6.46875 6.55469 6.45312C6.58073 6.43229 6.60677 6.41146 6.63281 6.39062C6.7474 6.29167 6.86458 6.21615 6.98438 6.16406C7.10938 6.10677 7.22917 6.07812 7.34375 6.07812C7.59375 6.07812 7.78646 6.1849 7.92188 6.39844L9.4375 8.67188C9.52083 8.79688 9.5599 8.92448 9.55469 9.05469C9.55469 9.1849 9.49479 9.3099 9.375 9.42969L8.6875 10.1172C8.41667 10.3828 8.28125 10.6719 8.28125 10.9844C8.28125 11.2917 8.38021 11.5755 8.57812 11.8359C8.80208 12.138 9.08594 12.4844 9.42969 12.875C9.77344 13.2656 10.0964 13.6094 10.3984 13.9062C10.5964 14.1042 10.8229 14.3229 11.0781 14.5625C11.3385 14.7969 11.5964 15.026 11.8516 15.25C12.112 15.4688 12.3438 15.6536 12.5469 15.8047C12.8073 15.9974 13.0911 16.0964 13.3984 16.1016C13.7057 16.1016 13.9948 15.9661 14.2656 15.6953L14.9531 15.0078C15.0729 14.8828 15.1979 14.8203 15.3281 14.8203C15.4583 14.8203 15.5859 14.8594 15.7109 14.9375L17.9844 16.4531C18.099 16.5312 18.1797 16.6198 18.2266 16.7188C18.2786 16.8177 18.3047 16.9245 18.3047 17.0391C18.3047 17.2734 18.2005 17.5104 17.9922 17.75C17.9714 17.776 17.9505 17.8021 17.9297 17.8281C17.9141 17.849 17.8932 17.8724 17.8672 17.8984C17.6016 18.2057 17.2865 18.4349 16.9219 18.5859C16.5573 18.737 16.1589 18.8151 15.7266 18.8203Z" fill="#787E8E"/>
</svg>
