<svg width="80" height="80" viewBox="0 0 80 80" fill="none" xmlns="http://www.w3.org/2000/svg">
<path d="M27.6469 51.3831C29.3864 49.6802 30.4688 47.3083 30.4688 44.6875C30.4688 39.5181 26.2631 35.3125 21.0938 35.3125C15.9244 35.3125 11.7188 39.5181 11.7188 44.6875C11.7188 47.3083 12.8011 49.6802 14.5406 51.3831C11.4261 53.4916 9.375 57.0577 9.375 61.0938V65.7812C9.375 67.0756 10.4244 68.125 11.7188 68.125H30.4688C31.7631 68.125 32.8125 67.0756 32.8125 65.7812V61.0938C32.8125 57.0577 30.7614 53.4916 27.6469 51.3831ZM21.0938 40C23.6784 40 25.7812 42.1028 25.7812 44.6875C25.7812 47.2722 23.6784 49.375 21.0938 49.375C18.5091 49.375 16.4062 47.2722 16.4062 44.6875C16.4062 42.1028 18.5091 40 21.0938 40ZM28.125 63.4375H14.0625V61.0938C14.0625 57.2167 17.2167 54.0625 21.0938 54.0625C24.9708 54.0625 28.125 57.2167 28.125 61.0938V63.4375Z" fill="#787E8E"/>
<path d="M54.2188 49.375C55.5132 49.375 56.5625 48.3257 56.5625 47.0312C56.5625 45.7368 55.5132 44.6875 54.2188 44.6875C52.9243 44.6875 51.875 45.7368 51.875 47.0312C51.875 48.3257 52.9243 49.375 54.2188 49.375Z" fill="#787E8E"/>
<path d="M63.5938 49.375C64.8882 49.375 65.9375 48.3257 65.9375 47.0312C65.9375 45.7368 64.8882 44.6875 63.5938 44.6875C62.2993 44.6875 61.25 45.7368 61.25 47.0312C61.25 48.3257 62.2993 49.375 63.5938 49.375Z" fill="#787E8E"/>
<path d="M44.8438 49.375C46.1382 49.375 47.1875 48.3257 47.1875 47.0312C47.1875 45.7368 46.1382 44.6875 44.8438 44.6875C43.5493 44.6875 42.5 45.7368 42.5 47.0312C42.5 48.3257 43.5493 49.375 44.8438 49.375Z" fill="#787E8E"/>
<path d="M63.5938 54.0625H44.8438C43.5494 54.0625 42.5 55.1119 42.5 56.4062C42.5 57.7006 43.5494 58.75 44.8438 58.75H63.5938C64.8881 58.75 65.9375 57.7006 65.9375 56.4062C65.9375 55.1119 64.8881 54.0625 63.5938 54.0625Z" fill="#787E8E"/>
<path d="M63.5938 63.4375H44.8438C43.5494 63.4375 42.5 64.4869 42.5 65.7812C42.5 67.0756 43.5494 68.125 44.8438 68.125H63.5938C64.8881 68.125 65.9375 67.0756 65.9375 65.7812C65.9375 64.4869 64.8881 63.4375 63.5938 63.4375Z" fill="#787E8E"/>
<path d="M69.9384 14.9054C69.0232 13.9899 67.5392 13.9899 66.624 14.9052L58.9062 22.623L55.8759 19.5927C54.9607 18.6774 53.4767 18.6774 52.5614 19.5927C51.646 20.508 51.646 21.9919 52.5614 22.9072L57.2489 27.5947C57.7065 28.0526 58.3064 28.2813 58.9062 28.2813C59.506 28.2813 60.1059 28.0526 60.5634 27.5949L69.9384 18.2199C70.8537 17.3046 70.8537 15.8207 69.9384 14.9054Z" fill="#787E8E"/>
<path d="M61.25 2.5C50.9113 2.5 42.5 10.9113 42.5 21.25H7.03125C3.15422 21.25 0 24.4042 0 28.2812V70.4688C0 74.3458 3.15422 77.5 7.03125 77.5H68.2812C72.1583 77.5 75.3125 74.3458 75.3125 70.4688V33.6373C78.2281 30.3314 80 25.9941 80 21.25C80 10.9113 71.5887 2.5 61.25 2.5ZM70.625 70.4688C70.625 71.7611 69.5736 72.8125 68.2812 72.8125H7.03125C5.73891 72.8125 4.6875 71.7611 4.6875 70.4688V28.2812C4.6875 26.9889 5.73891 25.9375 7.03125 25.9375H43.0933C45.18 34.0155 52.5292 40 61.25 40C64.663 40 67.8655 39.083 70.625 37.483V70.4688ZM61.25 35.3125C53.4959 35.3125 47.1875 29.0041 47.1875 21.25C47.1875 13.4959 53.4959 7.1875 61.25 7.1875C69.0041 7.1875 75.3125 13.4959 75.3125 21.25C75.3125 29.0041 69.0041 35.3125 61.25 35.3125Z" fill="#787E8E"/>
</svg>
